<svg xmlns="http://www.w3.org/2000/svg" width="50" height="50"><g transform="matrix(.375 0 0 .375 1 1)"><circle cy="64" cx="64" r="64" fill="#eceff1"/><path d="M85.296 78.346v8.52h5.38v-8.52zm-11.807 0v8.52h5.38v-8.52zm-11.807 0v8.52h5.38v-8.52zm-11.806 0v8.52h5.38v-8.52zm35.42-14.944v8.518h5.38v-8.518zm-11.808 0v8.518h5.38v-8.518zm-11.807 0v8.518h5.38v-8.518zm-11.806 0v8.518h5.38v-8.518zm-11.806 0v8.518h5.38v-8.518zm-6.425-5.68h65.757v34.972h-53.95V78.346h-5.38v14.348h-6.427zm51.26-22.416h8.818v17.037H98v3.138H30v-3.137h6.417l14.058-6.426v6.216l13.6-6.216v6.148l13.45-6.148v6.426h5.38z" fill="#263238"/></g></svg>